<!DOCTYPE svg PUBLIC "-//W3C//DTD SVG 1.1//EN" "http://www.w3.org/Graphics/SVG/1.1/DTD/svg11.dtd">
<!-- Uploaded to: SVG Repo, www.svgrepo.com, Transformed by: SVG Repo Mixer Tools -->
<svg fill="#ffffff" version="1.1" id="Capa_1" xmlns="http://www.w3.org/2000/svg" xmlns:xlink="http://www.w3.org/1999/xlink" width="800px" height="800px" viewBox="0 0 45.731 45.731" xml:space="preserve">
<g id="SVGRepo_bgCarrier" stroke-width="0"/>
<g id="SVGRepo_tracerCarrier" stroke-linecap="round" stroke-linejoin="round"/>
<g id="SVGRepo_iconCarrier"> <g> <g> <g> <path d="M20.366,14.985c0.76-0.433,1.623-0.664,2.5-0.664c0.875,0,1.74,0.231,2.498,0.662l8.814,5.021l0.979-0.55 c0.364-1.035,0.516-2.247,0.516-3.544l0.885-5.152l4.273-2.367c0.07-0.039,0.113-0.113,0.109-0.193 c-0.005-0.08-0.053-0.153-0.123-0.187l-4.578-2.103c-0.97-2.038-2.951-3.446-5.377-3.503c-3.511-0.081-6.328,2.92-6.328,6.428 v0.048c0,0.543-0.504,0.943-1.025,0.797c-0.972-0.27-2.164-0.418-3.223-0.418c-5.599,0-10.293,3.978-11.37,9.263l2.638,1.482 L20.366,14.985z M33.73,6.53c0.428,0,0.772,0.346,0.772,0.772c0,0.428-0.346,0.774-0.772,0.774s-0.772-0.347-0.772-0.774 C32.957,6.877,33.305,6.53,33.73,6.53z"/> <path d="M44.742,18.719c-0.305-0.177-0.655-0.267-0.995-0.267c-0.332,0-0.669,0.084-0.97,0.253l-7.317,4.119 c-0.396,0.224-0.841,0.337-1.28,0.337c-0.444,0-0.893-0.115-1.292-0.343l-9.051-5.156c-0.3-0.172-0.636-0.257-0.971-0.257 c-0.336,0-0.671,0.085-0.971,0.257l-9.048,5.156c-0.402,0.228-0.848,0.343-1.294,0.343c-0.44,0-0.882-0.113-1.281-0.337 L2.941,18.7c-0.3-0.169-0.631-0.254-0.963-0.254c-0.342,0-0.692,0.09-0.998,0.269C0.379,19.067,0,19.711,0,20.407 c0,0.001,0,0.001,0,0.002C0,33.02,10.237,43.243,22.782,43.328h0.109c12.655-0.085,22.84-10.31,22.84-22.919 c0-0.001,0-0.001,0-0.002C45.732,19.713,45.342,19.069,44.742,18.719z"/> </g> </g> </g> </g>
</svg>