<svg width="31" height="29" viewBox="0 0 31 29" fill="none" xmlns="http://www.w3.org/2000/svg">
<g clip-path="url(#clip0_830_180)">
<path d="M20.5633 18.4029L23.7021 13.2917C24.5456 11.9448 24.9902 10.412 24.9902 8.85104C24.9902 7.29006 24.5456 5.75727 23.7021 4.41041C22.8679 3.06329 21.6699 1.94495 20.2281 1.16751C18.7862 0.390067 17.1513 -0.019165 15.4871 -0.019165C13.8229 -0.019165 12.1879 0.390067 10.7461 1.16751C9.30429 1.94495 8.10625 3.06329 7.27208 4.41041C6.42858 5.75727 5.98396 7.29006 5.98396 8.85104C5.98396 10.412 6.42858 11.9448 7.27208 13.2917L10.4108 18.3787C5.16667 18.9829 0 20.5417 0 23.5625C0 27.2962 8.03417 29 15.5 29C22.9658 29 31 27.2962 31 23.5625C31 20.5417 25.8333 18.9829 20.5633 18.4029ZM9.51958 5.64291C9.95725 4.88356 10.5532 4.21403 11.2723 3.6739C11.9914 3.13377 12.8189 2.73401 13.706 2.49828C14.5931 2.26254 15.5217 2.19561 16.437 2.30145C17.3522 2.40728 18.2354 2.68372 19.0345 3.11444C19.8335 3.54515 20.5321 4.12138 21.0889 4.80905C21.6458 5.49672 22.0496 6.28186 22.2764 7.11805C22.5032 7.95424 22.5485 8.82449 22.4096 9.67734C22.2706 10.5302 21.9503 11.3483 21.4675 12.0833L15.5 21.75L9.5325 12.0833C8.92375 11.1061 8.60193 9.99577 8.59966 8.86475C8.5974 7.73373 8.91475 6.62224 9.51958 5.64291ZM15.5 26.5833C6.975 26.5833 2.58333 24.4687 2.58333 23.5625C2.58333 22.9221 5.36042 21.2062 11.8575 20.6867L13.6012 23.5021C13.7944 23.8131 14.0714 24.0712 14.4046 24.2506C14.7378 24.43 15.1155 24.5245 15.5 24.5245C15.8845 24.5245 16.2622 24.43 16.5954 24.2506C16.9286 24.0712 17.2056 23.8131 17.3988 23.5021L19.1425 20.6867C25.6396 21.2062 28.4167 22.9583 28.4167 23.5625C28.4167 24.4687 24.025 26.5833 15.5 26.5833Z" fill="#F1F0E2"/>
<path d="M15.5003 10.875C16.9271 10.875 18.0837 9.79304 18.0837 8.45835C18.0837 7.12367 16.9271 6.04169 15.5003 6.04169C14.0736 6.04169 12.917 7.12367 12.917 8.45835C12.917 9.79304 14.0736 10.875 15.5003 10.875Z" fill="#F1F0E2"/>
</g>
<defs>
<clipPath id="clip0_830_180">
<rect width="31" height="29" fill="white"/>
</clipPath>
</defs>
</svg>
