<svg width="27" height="27" viewBox="0 0 27 27" fill="none" xmlns="http://www.w3.org/2000/svg">
<path d="M25.0315 19.6501V23.4001C25.0328 23.7482 24.9639 24.0928 24.8291 24.4118C24.6943 24.7308 24.4965 25.0171 24.2486 25.2525C24.0006 25.4878 23.7078 25.667 23.389 25.7785C23.0703 25.89 22.7325 25.9315 22.3973 25.9001C18.6791 25.4822 15.1074 24.1678 11.9694 22.0626C9.04985 20.1435 6.57459 17.5828 4.71939 14.5626C2.67728 11.3016 1.40643 7.58886 1.00981 3.72512C0.979612 3.37945 1.01932 3.03107 1.12641 2.70215C1.2335 2.37323 1.40562 2.07098 1.63182 1.81465C1.85801 1.55831 2.13332 1.35351 2.44022 1.21327C2.74712 1.07304 3.07889 1.00045 3.41439 1.00012H7.03939C7.6258 0.994151 8.19431 1.20897 8.63894 1.60454C9.08357 2.0001 9.37398 2.54943 9.45606 3.15012C9.60906 4.3502 9.89281 5.52853 10.3019 6.66262C10.4645 7.11003 10.4997 7.59626 10.4033 8.06372C10.3069 8.53118 10.083 8.96026 9.75814 9.30012L8.22356 10.8876C9.94369 14.0171 12.4484 16.6082 15.4736 18.3876L17.0081 16.8001C17.3367 16.464 17.7515 16.2324 18.2033 16.1327C18.6552 16.033 19.1252 16.0694 19.5577 16.2376C20.654 16.6608 21.7931 16.9543 22.9531 17.1126C23.5401 17.1983 24.0762 17.5041 24.4594 17.972C24.8426 18.4399 25.0462 19.0371 25.0315 19.6501Z" stroke="#F1F0E2" stroke-width="2" stroke-linecap="round" stroke-linejoin="round"/>
</svg>
