<svg width="168" height="190" viewBox="0 0 168 190" fill="none" xmlns="http://www.w3.org/2000/svg">
<path d="M139.927 94.6066V88.2941H133.708V94.6066C133.708 108 128.467 120.845 119.137 130.315C109.807 139.786 97.1525 145.107 83.958 145.107C70.7635 145.107 58.1094 139.786 48.7794 130.315C39.4495 120.845 34.208 108 34.208 94.6066V72.5128H27.9893V94.6066C27.9893 109.674 33.8859 124.125 44.3821 134.779C54.8783 145.433 69.1142 151.419 83.958 151.419C98.8018 151.419 113.038 145.433 123.534 134.779C134.03 124.125 139.927 109.674 139.927 94.6066V94.6066Z" fill="#E7E7E7"/>
<path d="M83.958 138.794H86.1657C97.4841 138.081 108.096 132.965 115.793 124.511C123.49 116.058 127.679 104.917 127.489 93.4072V88.2941C127.489 85.7828 128.472 83.3744 130.221 81.5986C131.971 79.8229 134.343 78.8253 136.817 78.8253H139.927V72.5128H136.817C132.694 72.5128 128.74 74.1755 125.824 77.135C122.908 80.0946 121.271 84.1086 121.271 88.2941V93.4072C121.45 103.299 117.867 112.88 111.264 120.158C104.662 127.436 95.5502 131.85 85.8236 132.482C80.769 132.738 75.7157 131.949 70.9712 130.161C66.2266 128.373 61.8901 125.624 58.2252 122.081C54.5604 118.538 51.6439 114.275 49.6532 109.552C47.6625 104.829 46.6392 99.7438 46.6455 94.6066V78.8253H40.4268V94.6066C40.4268 106.326 45.0131 117.565 53.1768 125.852C61.3405 134.139 72.4128 138.794 83.958 138.794Z" fill="#E7E7E7"/>
<path d="M83.958 126.169H86.1035C94.0941 125.467 101.525 121.715 106.898 115.67C112.27 109.625 115.184 101.737 115.052 93.5966V85.1378C115.052 79.2782 117.345 73.6586 121.427 69.5152C125.509 65.3718 131.045 63.0441 136.817 63.0441H139.927V56.7316H136.817C129.395 56.7316 122.278 59.7244 117.029 65.0516C111.781 70.3788 108.833 77.604 108.833 85.1378V93.5966C108.969 100.139 106.653 106.489 102.352 111.364C98.0522 116.239 92.0889 119.274 85.6682 119.857C82.2669 120.107 78.8516 119.636 75.6396 118.473C72.4276 117.31 69.4894 115.481 67.0119 113.102C64.509 110.738 62.5132 107.875 61.149 104.693C59.7848 101.511 59.0815 98.0771 59.083 94.6066V88.2941H52.8643V94.6066C52.8752 98.9259 53.7551 103.198 55.45 107.159C57.1449 111.121 59.6192 114.69 62.721 117.647C68.46 123.149 76.0638 126.201 83.958 126.169V126.169Z" fill="#E7E7E7"/>
<path d="M40.4268 31.4814H34.208V37.7939H40.4268V31.4814Z" fill="#E7E7E7"/>
<path d="M65.3019 189.294H71.5207C71.5207 188.457 71.8483 187.654 72.4314 187.062C73.0145 186.47 73.8054 186.138 74.6301 186.138H99.5051C100.33 186.138 101.121 186.47 101.704 187.062C102.287 187.654 102.614 188.457 102.614 189.294H108.833C108.833 186.783 107.85 184.374 106.101 182.599C104.352 180.823 101.979 179.825 99.5051 179.825H96.3957V162.876C112.112 159.926 126.315 151.483 136.539 139.012C146.763 126.542 152.362 110.831 152.364 94.6065V92.7443L167.01 77.91C167.441 77.4661 167.733 76.9025 167.85 76.2902C167.966 75.6779 167.901 75.0444 167.663 74.4696C167.429 73.8933 167.033 73.3998 166.524 73.0516C166.015 72.7034 165.416 72.5159 164.802 72.5128H156.749L167.01 62.1287C167.441 61.6849 167.733 61.1212 167.85 60.509C167.966 59.8967 167.901 59.2632 167.663 58.6884C167.429 58.112 167.033 57.6186 166.524 57.2704C166.015 56.9221 165.416 56.7346 164.802 56.7315H155.909L167.196 42.9703C167.575 42.509 167.816 41.9478 167.891 41.3524C167.966 40.7571 167.873 40.1522 167.622 39.6089C167.37 39.0655 166.971 38.6062 166.472 38.2847C165.973 37.9633 165.393 37.793 164.802 37.794H139.927C128.901 37.7654 118.275 41.9852 110.195 49.6011C102.115 57.2169 97.1832 67.6615 96.3957 78.8253H78.7033C76.53 78.8273 74.4242 78.0589 72.7495 76.6529C71.0748 75.2468 69.9364 73.2913 69.5307 71.124L62.4102 33.0596C61.4273 27.6855 58.7529 22.7802 54.7888 19.0808C50.8247 15.3814 45.785 13.0876 40.4269 12.544V12.544C40.4269 10.8698 41.0821 9.26423 42.2484 8.08041C43.4146 6.89658 44.9964 6.23152 46.6457 6.23152C48.295 6.23152 49.8768 6.89658 51.043 8.08041C52.2092 9.26423 52.8644 10.8698 52.8644 12.544V15.7003H59.0832V12.544C59.067 9.98654 58.286 7.49434 56.8436 5.39738C55.4012 3.30042 53.3654 1.69758 51.0057 0.801072C48.6461 -0.0954382 46.0738 -0.243343 43.6295 0.37694C41.1851 0.997223 38.984 2.35644 37.3176 4.27464C35.6511 2.35644 33.45 0.997223 31.0057 0.37694C28.5613 -0.243343 25.9891 -0.0954382 23.6294 0.801072C21.2697 1.69758 19.2339 3.30042 17.7915 5.39738C16.3491 7.49434 15.5681 9.98654 15.5519 12.544V25.169H3.11443C2.52308 25.168 1.94371 25.3383 1.44429 25.6597C0.944876 25.9812 0.546116 26.4405 0.294791 26.9839C0.0434654 27.5272 -0.0500041 28.1321 0.0253476 28.7274C0.100699 29.3228 0.341747 29.884 0.720215 30.3453L15.5519 48.399V94.6065C15.5594 111.99 21.99 128.739 33.5733 141.543C45.1566 154.346 61.0498 162.274 78.1126 163.76L80.3824 179.825H74.6301C72.1561 179.825 69.7834 180.823 68.0341 182.599C66.2847 184.374 65.3019 186.783 65.3019 189.294V189.294ZM15.5519 34.6378V38.5515L9.7685 31.4815H15.5519V34.6378ZM90.1769 179.825H86.6633L84.4246 164.044C86.3524 164.044 88.2802 164.044 90.1769 163.76V179.825ZM27.9894 6.23152C29.6388 6.23152 31.2205 6.89658 32.3868 8.08041C33.553 9.26423 34.2082 10.8698 34.2082 12.544H21.7707C21.7707 10.8698 22.4259 9.26423 23.5921 8.08041C24.7584 6.89658 26.3401 6.23152 27.9894 6.23152ZM21.7707 94.6065V57.5837C24.0989 60.2828 26.967 62.4474 30.1839 63.9332C33.4008 65.4189 36.8927 66.1918 40.4269 66.2003H55.9738V59.8878H40.4269C35.479 59.8878 30.7337 57.8926 27.235 54.3411C23.7362 50.7896 21.7707 45.9728 21.7707 40.9503V18.8565H37.9705C42.3118 18.8599 46.5161 20.3999 49.859 23.2114C53.202 26.0229 55.4744 29.9297 56.2848 34.259L63.4363 72.3234C64.1161 75.9281 66.0123 79.1797 68.7988 81.5185C71.5852 83.8573 75.0877 85.1371 78.7033 85.1378H96.3957V93.9121C96.4704 97.1411 95.3701 100.285 93.305 102.742C91.2399 105.199 88.355 106.798 85.2019 107.232C83.4672 107.409 81.7152 107.213 80.0596 106.659C78.404 106.104 76.8817 105.202 75.5917 104.012C74.3016 102.821 73.2725 101.369 72.5712 99.7483C71.8699 98.1281 71.5119 96.3763 71.5207 94.6065H65.3019C65.3019 99.6291 67.2675 104.446 70.7662 107.997C74.265 111.549 79.0102 113.544 83.9582 113.544C84.5693 113.575 85.1816 113.575 85.7927 113.544C90.488 112.953 94.8025 110.622 97.9075 106.998C101.012 103.375 102.689 98.7141 102.614 93.9121V81.9815C102.614 71.9364 106.546 62.3028 113.543 55.1998C120.54 48.0969 130.031 44.1065 139.927 44.1065H158.148L146.861 57.8678C146.482 58.329 146.241 58.8902 146.166 59.4856C146.091 60.081 146.184 60.6858 146.435 61.2292C146.687 61.7725 147.086 62.2319 147.585 62.5533C148.084 62.8748 148.664 63.045 149.255 63.044H157.308L147.047 73.4281C146.616 73.8719 146.324 74.4355 146.207 75.0478C146.091 75.6601 146.156 76.2936 146.394 76.8684C146.628 77.4448 147.024 77.9382 147.533 78.2864C148.042 78.6347 148.641 78.8222 149.255 78.8253H157.308L147.047 89.2093C146.759 89.5043 146.531 89.854 146.376 90.2386C146.222 90.6231 146.143 91.0349 146.146 91.4503V94.6065C146.146 111.348 139.594 127.404 127.931 139.243C116.269 151.081 100.451 157.732 83.9582 157.732C67.465 157.732 51.6474 151.081 39.985 139.243C28.3226 127.404 21.7707 111.348 21.7707 94.6065V94.6065Z" fill="#E7E7E7"/>
</svg>
